<?xml version="1.0" encoding="UTF-8"?>
<svg width="330px" height="90px" viewBox="0 0 330 90" version="1.1" xmlns="http://www.w3.org/2000/svg" xmlns:xlink="http://www.w3.org/1999/xlink">
    <title>flipsite</title>
    <g id="Page-1" stroke="none" stroke-width="1" fill="none" fill-rule="evenodd">
        <g id="flipsite" fill-rule="nonzero" stroke-width="1.25">
            <polygon id="path863796" stroke="#00AA55" fill="#00AA55" points="44.3209288 20.25 44.3209288 8.73 0.67092875 8.73 0.67092875 71.73 14.8009288 71.73 14.8009288 48.06 41.9809288 48.06 41.9809288 36.54 14.8009288 36.54 14.8009288 20.34"></polygon>
            <polygon id="path863798" stroke="#08A254" fill="#08A254" points="66.9010787 71.46 66.9010787 4.59 53.2210788 4.59 53.2210788 71.46"></polygon>
            <path d="M92.0335788,71.46 L92.0335788,23.22 L78.4435788,23.22 L78.4435788,71.46 L92.0335788,71.46 Z M85.1935788,16.2 C89.7835788,16.2 93.0235788,13.05 93.0235788,8.55 C93.0235788,3.96 89.7835788,0.72 85.1935788,0.72 C80.6035788,0.72 77.3635788,3.96 77.3635788,8.55 C77.3635788,13.05 80.6035788,16.2 85.1935788,16.2 Z" id="path863800" stroke="#0F9954" fill="#0F9954"></path>
            <path d="M131.930304,22.77 C126.440304,22.77 121.760304,25.11 118.520304,29.52 L117.350304,31.14 L117.350304,23.22 L103.670304,23.22 L103.670304,89.28 L117.350304,89.28 L117.350304,63.45 L118.520304,65.07 C121.760304,69.57 126.530304,71.91 132.290304,71.91 C144.980304,71.91 153.170304,62.28 153.170304,47.43 C153.170304,32.58 144.620304,22.59 131.930304,22.59 L131.930304,22.77 Z M128.330304,60.66 C123.740304,60.66 119.510304,57.78 117.440304,53.19 L117.440304,40.86 C119.510304,36.36 123.740304,33.48 128.330304,33.48 C134.900304,33.48 139.490304,39.06 139.490304,46.98 C139.490304,54.99 134.900304,60.57 128.330304,60.57 L128.330304,60.66 Z" id="path863802" stroke="#179153" fill="#179153"></path>
            <path d="M172.182804,27.27 C172.632804,26.64 175.062804,23.22 179.832804,21.33 C182.712804,20.16 185.322804,19.98 186.852804,19.98 C191.802804,19.98 199.542804,22.59 205.932804,26.37 L211.242804,14.76 C204.942804,10.53 196.392804,8.01 188.202804,8.01 C173.892804,8.01 164.712804,15.39 164.712804,26.73 C164.712804,32.04 166.512804,35.64 169.212804,38.25 C167.952804,33.39 171.552804,28.17 172.182804,27.27 L172.182804,27.27 Z M191.712804,34.02 C186.942804,32.58 182.622804,31.23 180.642804,28.62 C180.012804,29.34 178.662804,30.51 177.942804,32.49 C177.942804,32.49 177.132804,34.65 177.132804,36.63 C177.222804,41.4 178.842804,43.29 182.082804,44.73 C182.802804,44.91 183.522804,45.09 184.242804,45.27 C190.902804,47.25 196.662804,48.96 196.662804,54.18 C196.662804,58.14 193.512804,60.48 188.202804,60.48 C181.632804,60.48 172.632804,56.61 166.512804,51.21 L161.112804,62.55 C168.402804,68.67 178.392804,72.36 188.022804,72.36 C202.332804,72.36 211.602804,64.89 211.602804,53.37 C211.602804,40.14 201.072804,36.9 191.712804,34.11 L191.712804,34.02 Z" id="path863804" stroke="#1E8852" fill="#1E8852"></path>
            <path d="M235.822641,71.46 L235.822641,23.22 L222.232641,23.22 L222.232641,71.46 L235.822641,71.46 Z M228.982641,16.2 C233.572641,16.2 236.812641,13.05 236.812641,8.55 C236.812641,3.96 233.572641,0.72 228.982641,0.72 C224.392641,0.72 221.152641,3.96 221.152641,8.55 C221.152641,13.05 224.392641,16.2 228.982641,16.2 Z" id="path863806" stroke="#268051" fill="#268051"></path>
            <path d="M274.369366,59.4 C272.119366,60.3 270.319366,60.75 268.969366,60.75 C267.529366,60.75 266.359366,60.39 265.549366,59.58 C264.469366,58.59 263.929366,56.97 263.929366,54.72 L263.929366,32.49 L276.169366,32.49 L276.169366,23.31 L263.929366,23.31 L263.929366,11.79 L250.339366,11.79 L250.339366,23.4 L243.859366,23.4 L243.859366,32.49 L250.339366,32.49 L250.339366,57.24 C250.339366,66.51 256.009366,72.27 265.189366,72.27 C269.329366,72.27 273.649366,71.1 276.889366,69.21 L274.369366,59.4 Z" id="path863808" stroke="#2D7751" fill="#2D7751"></path>
            <path d="M322.970766,29.07 C319.010766,24.93 313.430766,22.77 306.410766,22.77 C292.280766,22.77 282.740766,32.76 282.740766,47.61 C282.740766,62.46 292.190766,72.09 306.860766,72.09 C314.780766,72.09 321.530766,69.3 326.300766,63.99 L319.280766,56.7 C316.130766,59.76 312.170766,61.47 308.030766,61.47 C302.180766,61.47 297.950766,57.96 296.420766,51.84 L296.240766,51.03 L329.270766,51.03 C329.720766,41.49 327.560766,33.93 322.970766,29.07 Z M316.220766,43.83 L296.060766,43.83 L296.150766,43.11 C297.230766,36.63 301.190766,32.58 306.500766,32.58 C312.260766,32.58 316.130766,36.9 316.130766,43.29 L316.220766,43.83 Z" id="path863810" stroke="#356F50" fill="#356F50"></path>
        </g>
    </g>
</svg>